<svg xmlns="http://www.w3.org/2000/svg" viewBox="0 0 41.16 39.57"><defs><style>.cls-1{fill:none;stroke:#b1b2b3;stroke-miterlimit:22.93;stroke-width:2.13px;}.cls-1,.cls-2{fill-rule:evenodd;}.cls-2{fill:#e20023;}</style></defs><title>Ресурс 1</title><g id="Слой_2" data-name="Слой 2"><g id="Слой_1-2" data-name="Слой 1"><polyline class="cls-1" points="27.68 3.12 1.06 3.12 1.06 38.5 36.45 38.5 36.45 10.28"/><path class="cls-2" d="M16.35,22.74l-1.5-3c-2-3.76-4.11-4.19-7.85-2.6A9.79,9.79,0,0,0,5.59,18c-.3.2-.37.27-.64.48s-.46.23-.58.67c.29.4.67.3,1.21.54a5.78,5.78,0,0,1,2.65,2.59c1.86,3.09,4.25,11.42,5.71,12.63,3.85,3.21,6.71-4.41,7.89-7.29a72,72,0,0,1,5-9.84A63.61,63.61,0,0,1,34.29,7.61c.24-.26.23-.31.44-.56l2.84-2.78c.39-.31.6-.59,1-.9l2.14-1.6c1-.82.24-1.95-.63-1.75A20,20,0,0,0,36,1.69c-.64.32-1.22.68-1.82,1.05a33.44,33.44,0,0,0-3.38,2.49,6.18,6.18,0,0,0-.74.63c-.33.33-.49.39-.81.68a75.4,75.4,0,0,0-5.65,6c-2.14,2.76-2.81,3.52-4.92,6.69Z"/></g></g></svg>