<svg xmlns="http://www.w3.org/2000/svg" viewBox="0 0 103.01 25.58"><defs><style>.cls-1{fill:#fff;fill-rule:evenodd;}</style></defs><title>Ресурс 7</title><g id="Слой_2" data-name="Слой 2"><g id="Слой_1-2" data-name="Слой 1"><path class="cls-1" d="M12.38,13.15a10.72,10.72,0,0,0,1,4.59,11.62,11.62,0,0,0,1,1.67A10.77,10.77,0,0,0,23.22,24H50.74V21.05c-.89-.06-4.17,0-5.32,0H23.93a8.63,8.63,0,0,1-4.51-.91A7.76,7.76,0,1,1,28,7.3a8.1,8.1,0,0,1,2.06,2.64A7.93,7.93,0,0,1,30.83,13l2.92,0a10.69,10.69,0,0,0-21.37.11Z"/><path class="cls-1" d="M16.5,13.27a6.59,6.59,0,0,0,6.37,6.56H50.73V16.93c-.58-.08-24.65,0-26.11,0S22.07,17,21,16.24A3.64,3.64,0,1,1,26.69,13h2.93A6.56,6.56,0,0,0,18.39,8.67,6.66,6.66,0,0,0,16.5,13.27Z"/><path class="cls-1" d="M2.42,5.52l0,.22H7.28V24.41a23.11,23.11,0,0,0,2.92.05V2.82H2.42Z"/><path class="cls-1" d="M0,10.11H3.11l.05,14.34H6c.12-.48,0-16.33,0-17.26H0Z"/><path class="cls-1" d="M56.35,10.56h7v2.6L70.46,8,63.4,2.74v2.6h-7v5.22Z"/><path class="cls-1" d="M70.46,17.76H63.4v-2.6l-7,5.21,7,5.21V23h7.06V17.76Z"/><path class="cls-1" d="M101.08,11.91h-23c.17,1.7.45,3.41.64,5.11s.49,3.37.63,5.06c.11,1.23.88,1.22,1.62,1.22H98.14a3.37,3.37,0,0,0,1.32-.1,1.12,1.12,0,0,0,.56-.88c.12-.83.18-1.76.26-2.59s.19-1.73.27-2.59c.16-1.74.35-3.49.53-5.23Zm-9.81,1.63a.71.71,0,0,1,.9.34,2.73,2.73,0,0,1,0,1.18c-.07,2-.18,4.17-.22,6.1,0,1.21-1,1.12-1.27.61a3.38,3.38,0,0,1-.08-1.2l.09-5c0-.81-.15-1.77.53-2Zm-8.4,3.57c-.05-.78-.14-1.6-.22-2.41,0-.48-.11-.78.2-1a.79.79,0,0,1,1,0c.41.33.35,1.56.4,2.21l.35,4.85c0,.43.13.84-.1,1.16a.63.63,0,0,1-.91.07c-.41-.32-.38-1.52-.43-2.16s-.14-1.56-.22-2.33l0-.37Zm12.51-3.56a.68.68,0,0,1,.91.37A27.26,27.26,0,0,1,96,17.53l-.33,3.63c-.11,1.26-1.11,1.15-1.32.55A29.61,29.61,0,0,1,94.57,18l.18-2.51c.06-.84-.07-1.71.63-2Zm-8.22,0a.77.77,0,0,1,.92.32,21.29,21.29,0,0,1,.16,3.63c0,.84,0,1.68,0,2.52,0,.67.22,1.89-.43,2.1a.7.7,0,0,1-.84-.46c-.1-.26-.3-6.4-.32-7.29A.74.74,0,0,1,87.16,13.54Z"/><path class="cls-1" d="M96.57.06a2,2,0,0,0-.75.59c-1.45,1.49-3.15,3.1-4.65,4.6L88.9,7.55c-.06.07-.11.1-.17.16a6.06,6.06,0,0,0-.8.88c-.34.74.25,1.25.79,1.73.78.68,1.4-.05,1.76-.4l3.31-3.28c.45-.45.88-.86,1.33-1.32S96,4.45,96.44,4l1.32-1.34c.16-.14.19-.21.32-.33.82-.75.15-1.52-.47-2.08a1,1,0,0,0-1-.21ZM89.29,8.48a.54.54,0,1,1,.39,1A.54.54,0,1,1,89.29,8.48Z"/><path class="cls-1" d="M87.8,10.6c-.12-.25-.31-.3-.46-.53a1.88,1.88,0,0,1,.17-2.33c-.33,0-9.06,0-9.74,0A1.53,1.53,0,0,0,76.1,9.31c.09,1,1.06,1.3,1.91,1.3h6.54C85.6,10.61,86.77,10.65,87.8,10.6Z"/><path class="cls-1" d="M91,10.61c1.34,0,2.75,0,4.1,0h6.22a1.73,1.73,0,0,0,1.4-.64c.79-1.07-.16-2.24-1.36-2.24H93.83l-1,1A25.14,25.14,0,0,0,91,10.61Z"/></g></g></svg>