<svg xmlns="http://www.w3.org/2000/svg" viewBox="0 0 102.43 26.44"><defs><style>.cls-1,.cls-2{fill:#fff;}.cls-1{fill-rule:evenodd;}.cls-2{font-size:18.23px;font-family:Ubuntu-Bold, Ubuntu;font-weight:700;}</style></defs><title>Ресурс 17</title><g id="Слой_2" data-name="Слой 2"><g id="Слой_1-2" data-name="Слой 1"><path class="cls-1" d="M12.38,12.3a10.56,10.56,0,0,0,1,4.58,10.28,10.28,0,0,0,1,1.67,10.77,10.77,0,0,0,8.9,4.56H50.74V20.19c-.89-.06-4.17,0-5.32,0H23.93a8.63,8.63,0,0,1-4.51-.91A7.76,7.76,0,1,1,28,6.44a7.75,7.75,0,0,1,2.81,5.71l2.92,0a10.69,10.69,0,0,0-21.37.12Z"/><path class="cls-1" d="M16.5,12.41A6.59,6.59,0,0,0,22.87,19H50.73V16.07c-.58-.08-24.65,0-26.11,0s-2.56.12-3.67-.67a3.64,3.64,0,1,1,5.73-3.2h2.93A6.56,6.56,0,0,0,18.39,7.81,6.66,6.66,0,0,0,16.5,12.41Z"/><path class="cls-1" d="M2.42,4.66l0,.22H7.28V23.55a23.11,23.11,0,0,0,2.92.05V2H2.42Z"/><path class="cls-1" d="M0,9.26H3.11l.05,14.33H6c.12-.47,0-16.33,0-17.26H0Z"/><path class="cls-1" d="M56.35,9.7h7v2.6l7.06-5.21L63.4,1.88v2.6h-7V9.7Z"/><path class="cls-1" d="M70.46,16.9H63.4V14.3l-7,5.21,7,5.22V22.12h7.06V16.9Z"/><text class="cls-2" transform="translate(84.01 20.17)">$</text><path class="cls-1" d="M83.3,1.15l.19,2.69c-.21.19-1.94,1.52-2,1.54a21.75,21.75,0,0,1-2.52-1L77.18,7,79,8.79l-.76,2.55L75.66,12l.12,3.07,2.62.47.79,2.63-1.65,1.92,1.87,2.43,2.41-1.12L84,22.83l-.26,2.78a18.08,18.08,0,0,0,3,.83L88,24.07,90.64,24,92,26.27l2.94-1-.38-2.67c.11-.12,2-1.55,2-1.57l2.64,1,1.65-2.61-1.82-1.84.7-2.58,2.64-.61-.15-3.1-2.63-.46-.87-2.47c.39-.55,1.6-1.77,1.73-2.08L98.69,3.84C98.17,4,96.48,5,96.2,5c-.1,0-2-1.3-2.18-1.43L94.25.83A13,13,0,0,0,91.36,0L90.1,2.38l-2.66.06L86.09.14l-2.79,1Zm5.75,2.69a9.38,9.38,0,1,1-9.45,9.38A9.41,9.41,0,0,1,89.05,3.84Z"/></g></g></svg>