<svg xmlns="http://www.w3.org/2000/svg" viewBox="0 0 101.81 23.01"><defs><style>.cls-1{fill:#fff;fill-rule:evenodd;}</style></defs><title>Ресурс 13</title><g id="Слой_2" data-name="Слой 2"><g id="Слой_1-2" data-name="Слой 1"><path class="cls-1" d="M12.38,10.58a10.72,10.72,0,0,0,1,4.59,11.62,11.62,0,0,0,1,1.67,10.77,10.77,0,0,0,8.9,4.56l27.52,0v-2.9c-.89-.06-4.17,0-5.32,0H23.93a8.53,8.53,0,0,1-4.51-.92A7.76,7.76,0,1,1,28,4.73a8.1,8.1,0,0,1,2.06,2.64,7.92,7.92,0,0,1,.75,3.06l2.92,0a10.69,10.69,0,0,0-21.37.11Z"/><path class="cls-1" d="M16.5,10.7a6.59,6.59,0,0,0,6.37,6.56H50.73V14.36c-.58-.08-24.65,0-26.11,0s-2.56.12-3.67-.68a3.64,3.64,0,1,1,5.73-3.19h2.93A6.56,6.56,0,0,0,18.39,6.1,6.64,6.64,0,0,0,16.5,10.7Z"/><path class="cls-1" d="M2.42,3l0,.22H7.28V21.84a23.22,23.22,0,0,0,2.92,0V.25H2.42Z"/><path class="cls-1" d="M0,7.54H3.11l.05,14.34H6c.12-.48,0-16.33,0-17.26H0Z"/><path class="cls-1" d="M56.35,8h7v2.6l7.06-5.21L63.4.17v2.6h-7V8Z"/><path class="cls-1" d="M70.46,15.19H63.4v-2.6l-7,5.21,7,5.21v-2.6h7.06V15.19Z"/><path class="cls-1" d="M77.94,6.94V17.81a2.56,2.56,0,0,0,1.17,2.24,5.25,5.25,0,0,0,3,.41h6.79c1.12,0,2.27,0,3.38,0h.23c2,0,3.92,0,5.87,0a3.45,3.45,0,0,0,2.43-.52,2.56,2.56,0,0,0,1-2c0-1,0-2,0-2.95,0-.71,0-8.59,0-8.9-.56.36-2.31,1.32-2.94,1.68L91.46,12c-1.73,1-1.39,1.07-3.17,0l-1.47-.84c-1-.57-2-1.13-3-1.69L78.69,6.55c-.24-.14-.51-.31-.74-.43Z"/><path class="cls-1" d="M78.11,4.22c.1.12,4,2.33,4.39,2.53,1,.62,7.3,4.19,7.37,4.19l10.3-5.86c.15-.09,1.36-.75,1.46-.86a2.57,2.57,0,0,0-1.77-1.58,20.58,20.58,0,0,0-3.27-.08H83.17a21.87,21.87,0,0,0-3.27.08A2.54,2.54,0,0,0,78.11,4.22Z"/></g></g></svg>