<svg xmlns="http://www.w3.org/2000/svg" viewBox="0 0 97.35 23.45"><defs><style>.cls-1{fill:#fff;fill-rule:evenodd;}</style></defs><title>Ресурс 9</title><g id="Слой_2" data-name="Слой 2"><g id="Слой_1-2" data-name="Слой 1"><path class="cls-1" d="M12.38,10.58a10.72,10.72,0,0,0,1,4.59,11.62,11.62,0,0,0,1,1.67,10.77,10.77,0,0,0,8.9,4.56l27.52,0v-2.9c-.89-.06-4.17,0-5.32,0H23.93a8.53,8.53,0,0,1-4.51-.92A7.76,7.76,0,1,1,28,4.73a8.1,8.1,0,0,1,2.06,2.64,7.92,7.92,0,0,1,.75,3.06l2.92,0a10.69,10.69,0,0,0-21.37.11Z"/><path class="cls-1" d="M16.5,10.7a6.59,6.59,0,0,0,6.37,6.56H50.73V14.36c-.58-.08-24.65,0-26.11,0s-2.56.12-3.67-.68a3.64,3.64,0,1,1,5.73-3.19h2.93A6.56,6.56,0,0,0,18.39,6.1,6.64,6.64,0,0,0,16.5,10.7Z"/><path class="cls-1" d="M2.42,3l0,.22H7.28V21.84a23.22,23.22,0,0,0,2.92,0V.25H2.42Z"/><path class="cls-1" d="M0,7.54H3.11l.05,14.34H6c.12-.48,0-16.33,0-17.26H0Z"/><path class="cls-1" d="M56.35,8h7v2.6l7.06-5.21L63.4.17v2.6h-7V8Z"/><path class="cls-1" d="M70.46,15.19H63.4v-2.6l-7,5.21,7,5.21v-2.6h7.06V15.19Z"/><path class="cls-1" d="M76.62,10.51v1.12s.13,1,.16,1.15a8.64,8.64,0,0,0,1.12,2.83,8.44,8.44,0,0,0,9,3.73A8.07,8.07,0,0,0,88,19c.27-.1.68-.32.9-.38l3.92,3.9a2.79,2.79,0,0,0,.72.57,4.74,4.74,0,0,0,1,.33H95a2.91,2.91,0,0,0,1.56-.76,2.73,2.73,0,0,0,.64-1.08,3.23,3.23,0,0,1,.11-.47v-.57c-.06-.14-.08-.38-.13-.53a2.78,2.78,0,0,0-.78-1.17l-1.29-1.29L92.55,15c0-.22.3-.66.39-.93A8.42,8.42,0,0,0,89.51,4a9,9,0,0,0-4-1.29h-1c-.07,0-.72.09-.87.12a7,7,0,0,0-.82.17,7.56,7.56,0,0,0-1.43.53,8.41,8.41,0,0,0-1.25.74,9,9,0,0,0-1.55,1.4,8.8,8.8,0,0,0-1.16,1.78,7.37,7.37,0,0,0-.54,1.41,6.84,6.84,0,0,0-.19.81,3.61,3.61,0,0,1-.13.84Zm16.17,7c.44-.1.67.26,1,.53l1.55,1.57a.65.65,0,0,1-.37,1c-.48.12-.73-.28-1-.55s-1.44-1.4-1.55-1.57a.64.64,0,0,1,.41-1ZM84.39,4.7a6.48,6.48,0,0,1,1.33,12.89,6.6,6.6,0,0,1-4.89-1.53,6.67,6.67,0,0,1-1.46-1.79,6.5,6.5,0,0,1,1.16-7.78c.08-.07.14-.11.21-.18A6.27,6.27,0,0,1,84.39,4.7Z"/></g></g></svg>