<svg xmlns="http://www.w3.org/2000/svg" viewBox="0 0 102.18 27.16"><defs><style>.cls-1{fill:#fff;fill-rule:evenodd;}</style></defs><title>Ресурс 6</title><g id="Слой_2" data-name="Слой 2"><g id="Слой_1-2" data-name="Слой 1"><path class="cls-1" d="M12.38,11.4a10.67,10.67,0,0,0,1,4.58,11.74,11.74,0,0,0,1,1.68,10.77,10.77,0,0,0,8.9,4.56l27.52,0V19.3c-.89-.07-4.17,0-5.32,0H23.93a8.53,8.53,0,0,1-4.51-.92A7.76,7.76,0,1,1,28,5.55a8,8,0,0,1,2.06,2.64,7.88,7.88,0,0,1,.75,3.06l2.92,0a10.69,10.69,0,0,0-21.37.12Z"/><path class="cls-1" d="M16.5,11.52a6.58,6.58,0,0,0,6.37,6.55H50.73V15.18c-.58-.08-24.65,0-26.11,0s-2.56.12-3.67-.68a3.64,3.64,0,1,1,5.73-3.2h2.93a6.56,6.56,0,0,0-13.12.24Z"/><path class="cls-1" d="M2.42,3.77l0,.21H7.28V22.66a23.22,23.22,0,0,0,2.92,0V1.06H2.42Z"/><path class="cls-1" d="M0,8.36H3.11L3.16,22.7H6c.12-.47,0-16.32,0-17.26H0Z"/><path class="cls-1" d="M56.35,8.8h7v2.61L70.46,6.2,63.4,1V3.59h-7V8.8Z"/><path class="cls-1" d="M70.46,16H63.4V13.4l-7,5.22,7,5.21V21.22h7.06V16Z"/><path class="cls-1" d="M93,24.31l-.4-1.15c-.46.14-.92.41-1.7.61a10.17,10.17,0,0,0,1-1.63c.1-.19.2-.25.12-.47-.14-.4-.46-1.18-.54-1.51a2.59,2.59,0,0,0-.28.6,8.25,8.25,0,0,1-1.73,2.67,2.88,2.88,0,0,1-1.1.66V19.33h2.8l-.45-1.28H88.43V13.33h4.27l-.13,2.23,1.16.41a16.33,16.33,0,0,0,.19-2.64h5.36a11.06,11.06,0,0,1-.66,3.29c-.12.33-.28.65-.38.95l1.13.42a10.29,10.29,0,0,0,.74-2,13,13,0,0,0,.39-2.37,12.66,12.66,0,0,0-.61-4.88,12.65,12.65,0,0,0-4.75-6.39,11.77,11.77,0,0,0-1.74-1,12.83,12.83,0,0,0-7-1.21,12.44,12.44,0,0,0-4.29,1.28,12.62,12.62,0,0,0-3.9,3,12.25,12.25,0,0,0-1.69,2.48,12.7,12.7,0,0,0-1,9.26,13,13,0,0,0,2.36,4.58c.22.28.44.5.65.74a13,13,0,0,0,5.09,3.29,12.86,12.86,0,0,0,7.28.3A11,11,0,0,0,93,24.31Zm2.27-7.09a2.89,2.89,0,0,1,.58.22l5.89,2.11s0,0,0,.05l-3.52,2.23c.1.17,1.84,1.87,2,2,.68.68,1.35,1.33,2,2-.13.17-.61.36-.77.52s-.19.3-.26.4a1.64,1.64,0,0,1-.26.37l-4-4c-.18.27-.39.6-.57.89l-1.13,1.8a5.94,5.94,0,0,1-.58.89l-4-11.19,4.7,1.69ZM87.2,24.09c-.83-.17-1.69-1.26-2.12-1.94a11.82,11.82,0,0,1-1.23-2.82H87.2v4.76Zm-4.59-4.68A8.2,8.2,0,0,0,83,20.64a12.06,12.06,0,0,0,1.06,2.2l.67.93a9.53,9.53,0,0,1-2-.73,11.64,11.64,0,0,1-3.12-2.25l-.17-.18a7.22,7.22,0,0,1-1-1.28h3.18a3.21,3.21,0,0,1,.94,0l0,.05ZM82.38,6.1H78.44a11.45,11.45,0,0,1,2.67-2.71,11.72,11.72,0,0,1,3.62-1.73c-.1.15-.22.29-.34.45a12.44,12.44,0,0,0-1.75,3.73l-.07.27Zm-6,6a11,11,0,0,1,.44-2.56,11.35,11.35,0,0,1,.86-2.15h4.58A10.55,10.55,0,0,1,82,8.54a26.31,26.31,0,0,0-.32,3.56ZM83.49,18c0-.35-.16-.75-.22-1.12s-.12-.75-.17-1.14a20,20,0,0,1-.17-2.45H87.2V18Zm-5.84,0a9.31,9.31,0,0,1-.87-2.14,14.68,14.68,0,0,1-.45-2.57h5.38A24.1,24.1,0,0,0,82,17a8.2,8.2,0,0,1,.19,1.1Zm6.2-11.93a9.44,9.44,0,0,1,.54-1.49c.5-1.13,1.55-3,2.81-3.28V6.11Zm4.57,0V1.34a3.12,3.12,0,0,1,1.25.81,5.87,5.87,0,0,1,.87,1.15,11.37,11.37,0,0,1,1.23,2.81Zm4.82,0h-.16a18.08,18.08,0,0,0-1.49-3.45l-.68-1a11.57,11.57,0,0,1,5.06,3,10.88,10.88,0,0,1,1.21,1.47H93.24Zm-4.82,6,0-4.71h3.68a15.51,15.51,0,0,1,.39,2.25,19.92,19.92,0,0,1,.18,2.46Zm-5.49,0A21.88,21.88,0,0,1,83.36,8c.16-.76.07-.63.5-.63h3.31c.07.22,0,4,0,4.71Zm10.7-3.29-.24-1.42H98a11.43,11.43,0,0,1,1.29,4.7H93.91A22.06,22.06,0,0,0,93.63,8.81Z"/></g></g></svg>