<svg xmlns="http://www.w3.org/2000/svg" viewBox="0 0 77.44 27.05"><defs><style>.cls-1{fill:#fff;fill-rule:evenodd;}</style></defs><title>Ресурс 3</title><g id="Слой_2" data-name="Слой 2"><g id="Слой_1-2" data-name="Слой 1"><path class="cls-1" d="M7.72,1.16l.2,2.72c-.22.19-2,1.54-2.06,1.56a21.56,21.56,0,0,1-2.55-1L1.54,7.05,3.41,8.88l-.77,2.58L0,12.16l.12,3.1,2.65.48.79,2.66L1.9,20.34,3.79,22.8l2.44-1.13,2.24,1.41-.26,2.81a17.26,17.26,0,0,0,3,.83l1.25-2.39,2.67-.08,1.41,2.3,3-1-.39-2.69c.11-.13,2-1.57,2.05-1.59l2.67,1,1.67-2.64-1.85-1.86.71-2.61,2.67-.61-.15-3.13-2.66-.47-.88-2.5c.4-.55,1.61-1.79,1.75-2.11L23.28,3.88C22.75,4,21,5.07,20.76,5c-.09,0-2-1.32-2.2-1.46L18.79.84A12.7,12.7,0,0,0,15.87,0L14.6,2.41l-2.7.06L10.54.14l-2.82,1Zm4.94,6.19a6.07,6.07,0,1,1-5.15,6.92A6.07,6.07,0,0,1,12.66,7.35Z"/><path class="cls-1" d="M58.09,1.16l.2,2.72c-.21.19-2,1.54-2.06,1.56a21.56,21.56,0,0,1-2.55-1L51.91,7.05l1.87,1.83L53,11.46l-2.64.7.11,3.1,2.66.48.79,2.66-1.66,1.94,1.89,2.46,2.43-1.13,2.25,1.41-.26,2.81a17,17,0,0,0,3,.83l1.25-2.39,2.66-.08,1.42,2.3,3-1-.38-2.69c.11-.13,2-1.57,2-1.59l2.68,1L75.9,19.6l-1.84-1.86.71-2.61,2.67-.61-.16-3.13-2.65-.47-.89-2.5c.4-.55,1.62-1.79,1.75-2.11L73.65,3.88C73.13,4,71.42,5.07,71.14,5c-.1,0-2-1.32-2.2-1.46L69.17.84A12.64,12.64,0,0,0,66.24,0L65,2.41l-2.7.06L60.92.14l-2.83,1ZM63,7.35a6.07,6.07,0,1,1-5.14,6.92A6.07,6.07,0,0,1,63,7.35Z"/><path class="cls-1" d="M30.38,9.28h8.34v3.08L47.06,6.2,38.72,0V3.12H30.38V9.28Z"/><path class="cls-1" d="M47.06,17.8H38.72V14.72l-8.34,6.16,8.34,6.17V24h8.34V17.8Z"/></g></g></svg>