<svg xmlns="http://www.w3.org/2000/svg" viewBox="0 0 93.76 23.01"><defs><style>.cls-1{fill:#fff;fill-rule:evenodd;}</style></defs><title>Ресурс 11</title><g id="Слой_2" data-name="Слой 2"><g id="Слой_1-2" data-name="Слой 1"><path class="cls-1" d="M12.38,10.58a10.58,10.58,0,0,0,1,4.59,10.71,10.71,0,0,0,9.86,6.23l27.52,0v-2.9c-.89-.06-4.17,0-5.32,0H23.93a8.53,8.53,0,0,1-4.51-.92A7.76,7.76,0,1,1,28,4.73a7.75,7.75,0,0,1,2.81,5.7l2.92,0a10.69,10.69,0,0,0-21.37.11Z"/><path class="cls-1" d="M16.5,10.7a6.59,6.59,0,0,0,6.37,6.56H50.73V14.36c-.58-.08-24.65,0-26.11,0s-2.56.12-3.67-.68a3.64,3.64,0,1,1,5.73-3.19h2.93A6.56,6.56,0,0,0,18.39,6.1,6.64,6.64,0,0,0,16.5,10.7Z"/><path class="cls-1" d="M2.42,3l0,.22H7.28V21.84a23.22,23.22,0,0,0,2.92,0V.25H2.42Z"/><path class="cls-1" d="M0,7.54H3.11l.05,14.34H6c.12-.48,0-16.33,0-17.26H0Z"/><path class="cls-1" d="M56.35,8h7v2.6l7.06-5.21L63.4.17v2.6h-7V8Z"/><path class="cls-1" d="M70.46,15.19H63.4v-2.6l-7,5.21,7,5.21v-2.6h7.06V15.19Z"/><path class="cls-1" d="M78.16,16.39c.29-.1,1-.45,1.38-.6s4-1.75,4.1-1.78L85,15.69a10.28,10.28,0,0,0,2-1.45A11.84,11.84,0,0,0,88.07,13l.17-.23a9.84,9.84,0,0,0,.61-1c.13-.25.26-.45.4-.77A10.45,10.45,0,0,0,90,8.72a3.55,3.55,0,0,0,.1-.64c-.1,0-1.33-.38-1.52-.44l-.51-.15c0-.14.13-4.11.14-4.47l.06-1.49a3.63,3.63,0,0,1,2.33-.44,3.51,3.51,0,0,1,2.9,2.82,14.05,14.05,0,0,1-.43,7,14.8,14.8,0,0,1-1.16,2.65l-.06.11a.39.39,0,0,1-.08.1L91.6,14c0,.07-.1.15-.14.21l-.36.52a3.21,3.21,0,0,1-.21.3l-.08.1-.39.48-.16.19a14.25,14.25,0,0,1-3.38,2.81,14,14,0,0,1-4.55,1.73,3.53,3.53,0,0,1-2.55-.47l-.1-.07A3.49,3.49,0,0,1,78.13,17,5.35,5.35,0,0,1,78.16,16.39Z"/></g></g></svg>