<svg xmlns="http://www.w3.org/2000/svg" viewBox="0 0 117.98 23.85"><defs><style>.cls-1,.cls-2{fill:#fff;}.cls-1{fill-rule:evenodd;}.cls-2{font-size:19.53px;font-family:Ubuntu-Bold, Ubuntu;font-weight:700;}</style></defs><title>Ресурс 15</title><g id="Слой_2" data-name="Слой 2"><g id="Слой_1-2" data-name="Слой 1"><path class="cls-1" d="M12.38,10.58a10.72,10.72,0,0,0,1,4.59,11.62,11.62,0,0,0,1,1.67,10.77,10.77,0,0,0,8.9,4.56l27.52,0v-2.9c-.89-.06-4.17,0-5.32,0H23.93a8.53,8.53,0,0,1-4.51-.92A7.76,7.76,0,1,1,28,4.73a8.1,8.1,0,0,1,2.06,2.64,7.92,7.92,0,0,1,.75,3.06l2.92,0a10.69,10.69,0,0,0-21.37.11Z"/><path class="cls-1" d="M16.5,10.7a6.59,6.59,0,0,0,6.37,6.56H50.73V14.36c-.58-.08-24.65,0-26.11,0s-2.56.12-3.67-.68a3.64,3.64,0,1,1,5.73-3.19h2.93A6.56,6.56,0,0,0,18.39,6.1,6.64,6.64,0,0,0,16.5,10.7Z"/><path class="cls-1" d="M2.42,3l0,.22H7.28V21.84a23.22,23.22,0,0,0,2.92,0V.25H2.42Z"/><path class="cls-1" d="M0,7.54H3.11l.05,14.34H6c.12-.48,0-16.33,0-17.26H0Z"/><path class="cls-1" d="M56.35,8h7v2.6l7.06-5.21L63.4.17v2.6h-7V8Z"/><path class="cls-1" d="M70.46,15.19H63.4v-2.6l-7,5.21,7,5.21v-2.6h7.06V15.19Z"/><text class="cls-2" transform="translate(74.78 19.53)">CRM</text></g></g></svg>