<svg xmlns="http://www.w3.org/2000/svg" viewBox="0 0 126.51 39.36"><defs><style>.cls-1{fill:#e20023;}.cls-1,.cls-5,.cls-6{fill-rule:evenodd;}.cls-2{font-size:18.67px;}.cls-2,.cls-3,.cls-4,.cls-5{fill:#fff;}.cls-2,.cls-3,.cls-4{font-family:SegoeScript-Bold, SegoeScript Bold;font-weight:700;}.cls-3{font-size:14.97px;}.cls-4{font-size:7.12px;}.cls-6{fill:#b1b2b3;}</style></defs><title>Ресурс 3</title><g id="Слой_2" data-name="Слой 2"><g id="Слой_1-2" data-name="Слой 1"><path class="cls-1" d="M16.18,16.84c7,0,12.68,4.27,12.68,9.54a7.64,7.64,0,0,1-1.4,4.36l2.74,6-7.55-2.13a16,16,0,0,1-6.47,1.33c-7,0-12.68-4.27-12.68-9.54S9.18,16.84,16.18,16.84Z"/><path class="cls-1" d="M40,.62C46.31.62,51.39,4.39,51.39,9s-5.08,8.4-11.35,8.4A13,13,0,0,1,30.91,14h0l-7.39-2.16L28.7,9C28.7,4.39,33.78.62,40,.62Z"/><path class="cls-1" d="M9,0c5,0,9,2.4,9,5.36v6l-2.7-2.18A12.71,12.71,0,0,1,9,10.72c-5,0-9-2.4-9-5.36S4,0,9,0Z"/><text class="cls-2" transform="translate(11.9 33.81)">?</text><text class="cls-3" transform="translate(36.92 15.08)">?</text><text class="cls-4" transform="translate(7.32 8.85)">?</text><path class="cls-5" d="M116.68,21.21l-.21,0-1-.1L115,19.73,114,20l.15,1.44-.88.52-.37.23h0l-.18.14-.16.13-.79.66-1.32-.64-.52.82,1.13.93-.32,1.21c-.1.58-.13,1.11-.19,1.71l-1.33.46.21,1,1.41-.14.51.88.25.39.14.18.14.18.67.78L112,32.1l.82.52.92-1.14c.57.14,1.07.28,1.64.38l1.23.1.49,1.37,1-.21-.16-1.43.89-.53.36-.23h0l.17-.13.18-.14.78-.65,1.3.63.52-.82-1.12-.92.33-1.21c.1-.59.13-1.09.18-1.71l1.36-.49-.22-.94-1.41.15-.53-.89c-.08-.13-.16-.26-.25-.39l-.14-.18-.15-.18-.66-.78L120,21l-.82-.52-.92,1.14-1.19-.31-.43-.07Zm.87-3.77,1-1.21,5.6,3.54-.69,1.48,1.63-.18,1.46,6.46L125,28.1l1.28,1-3.54,5.6-1.38-.67.17,1.52L115,37.06l-.53-1.48-1,1.25-5.6-3.53.7-1.51L107,32l-1.46-6.46L107,25l-1.26-1,3.53-5.6,1.45.7-.15-1.56L117.05,16l.5,1.44Zm-1.54,4A5,5,0,0,1,119.57,23h0a5,5,0,0,1,0,7.12h0a5,5,0,0,1-7.12,0h0a5,5,0,0,1,0-7.12h0A5,5,0,0,1,116,21.49Zm1.31,3.73a1.85,1.85,0,0,1-2.62,2.62h0a1.88,1.88,0,0,1-.54-1.31,1.84,1.84,0,0,1,.54-1.3h0a1.85,1.85,0,0,1,2.62,0Z"/><path class="cls-6" d="M116.61,19.6l.55.07a4.28,4.28,0,0,1,.54.12l1.16-1.45,3.21,2L121.3,22c.14.16.26.32.38.48s.22.33.32.51l1.81-.2.84,3.7-1.71.62a5.78,5.78,0,0,1-.08.6c0,.2-.08.4-.13.6l1.41,1.16-2,3.21-1.66-.81c-.15.12-.29.23-.45.34a4.53,4.53,0,0,1-.46.3l.2,1.83L116,35.2l-.62-1.73a5.58,5.58,0,0,1-.57-.08l-.55-.11-1.17,1.45-3.21-2,.78-1.67c-.12-.15-.25-.31-.36-.47a5.54,5.54,0,0,1-.33-.51l-1.79.18-.84-3.71,1.7-.59c0-.2.05-.39.08-.59s.08-.39.13-.58l-1.43-1.18,2-3.21,1.68.81a5.3,5.3,0,0,1,.45-.34c.15-.11.31-.21.47-.31l-.17-1.83,3.7-.84.6,1.74Zm-.6,3.49a3.44,3.44,0,1,0,3.44,3.44A3.44,3.44,0,0,0,116,23.09Z"/><path class="cls-5" d="M116,29.72a3.19,3.19,0,1,0-3.19-3.19A3.19,3.19,0,0,0,116,29.72Z"/><path class="cls-6" d="M87,20.27h0c-3,3.42-10.47,3.42-13.51,0h0c-4.56.39-9,9.8-8.25,14H95.2C96,30.07,91.52,20.66,87,20.27Z"/><path class="cls-6" d="M80.14,21.32a8.51,8.51,0,1,0-8.52-8.51A8.53,8.53,0,0,0,80.14,21.32Z"/><polygon class="cls-5" points="76.69 22.3 77.93 25.5 81.98 25.61 83.22 22.43 76.69 22.3"/><polygon class="cls-5" points="78.14 26.93 81.87 26.95 83.79 34.28 76.03 34.28 78.14 26.93"/><path class="cls-1" d="M100.92,13.06a11,11,0,1,1-7.81,3.24,11,11,0,0,1,7.81-3.24Zm5.78,5.27a8.17,8.17,0,1,0,2.39,5.77A8.18,8.18,0,0,0,106.7,18.33Z"/><polygon class="cls-1" points="99.14 17.82 102.06 17.82 102.06 22.64 106.89 22.64 106.89 25.57 102.06 25.57 99.14 25.57 99.14 22.64 99.14 17.82"/><path class="cls-5" d="M100.92,10.45a13.7,13.7,0,1,1-12.61,8.44,13.4,13.4,0,0,1,3-4.44,13.71,13.71,0,0,1,9.65-4Zm3.93,9.73a5.39,5.39,0,0,0-1.8-1.21,5.46,5.46,0,0,0-2.13-.41,5.54,5.54,0,0,0-2.13.41,5.6,5.6,0,0,0-3,3A5.55,5.55,0,0,0,97,28a5.6,5.6,0,0,0,1.8,1.21,5.54,5.54,0,0,0,2.13.41,5.46,5.46,0,0,0,2.13-.41,5.39,5.39,0,0,0,1.8-1.21,5.45,5.45,0,0,0,1.21-1.79,5.76,5.76,0,0,0,0-4.27A5.45,5.45,0,0,0,104.85,20.18Z"/><polygon class="cls-5" points="99.14 15.2 104.68 15.2 104.68 20.03 109.51 20.03 109.51 28.18 96.53 28.18 96.53 15.2 99.14 15.2"/><path class="cls-1" d="M100.92,13.06a11,11,0,1,1-7.81,3.24,11,11,0,0,1,7.81-3.24Zm5.78,5.27a8.17,8.17,0,1,0,2.39,5.77A8.18,8.18,0,0,0,106.7,18.33Z"/><polygon class="cls-1" points="99.14 17.82 102.06 17.82 102.06 22.64 106.89 22.64 106.89 25.57 102.06 25.57 99.14 25.57 99.14 22.64 99.14 17.82"/><path class="cls-6" d="M47.45,31.75h0c-1.64,1.86-5.68,1.86-7.33,0h0c-2.48.22-4.91,5.33-4.48,7.61H51.92C52.36,37.08,49.92,32,47.45,31.75Z"/><path class="cls-6" d="M43.75,32.32a4.62,4.62,0,1,0-4.62-4.62A4.62,4.62,0,0,0,43.75,32.32Z"/><polygon class="cls-5" points="41.87 32.86 42.55 34.59 44.74 34.65 45.42 32.92 41.87 32.86"/><polygon class="cls-5" points="42.66 35.37 44.69 35.38 45.73 39.36 41.52 39.36 42.66 35.37"/></g></g></svg>