<svg xmlns="http://www.w3.org/2000/svg" viewBox="0 0 160.62 42.64"><defs><style>.cls-1,.cls-3{fill:#fff;}.cls-1,.cls-2,.cls-4,.cls-7,.cls-8{fill-rule:evenodd;}.cls-2,.cls-5{fill:#b1b2b3;}.cls-4,.cls-6,.cls-7{fill:#e20023;}.cls-4{stroke:#fff;stroke-miterlimit:22.93;stroke-width:0.57px;}.cls-8{fill:#98acc4;}</style></defs><title>Ресурс 5</title><g id="Слой_2" data-name="Слой 2"><g id="Слой_1-2" data-name="Слой 1"><path class="cls-1" d="M74.3,14,74,14l-1.41-.13L71.94,12l-1.31.3.19,2L69.61,15l-.51.32h0l-.24.18-.23.18-1.09.92-1.84-.89L65,16.82l1.57,1.29-.44,1.68c-.14.8-.18,1.52-.26,2.35L64,22.78l.3,1.32,2-.19L67,25.12l.35.54.19.25.19.25.92,1.08-.86,1.83,1.15.72,1.27-1.59c.78.2,1.48.4,2.26.53l1.7.15.69,1.9,1.31-.3-.22-2,1.23-.72.5-.32h0l.25-.17.24-.19,1.09-.9,1.79.87.72-1.14-1.55-1.27L80.63,23c.14-.82.18-1.52.25-2.37l1.88-.68-.3-1.31-2,.22-.73-1.23c-.11-.19-.23-.36-.35-.54l-.18-.26L79,16.55l-.92-1.08L79,13.66l-1.14-.72-1.26,1.58L74.9,14.1l-.6-.1Zm1.2-5.23,1.33-1.66L84.59,12l-1,2.05,2.26-.25,2,8.94-2.16.79L87.52,25l-4.89,7.76-1.92-.93.24,2.1-9,2-.74-2-1.39,1.74-7.75-4.89,1-2.09-2.24.22-2-8.95,2.1-.72-1.75-1.44L64.08,10l2,1L65.87,8.8l8.94-2,.69,2Zm-2.12,5.61a7,7,0,0,1,4.93,2h0a7,7,0,0,1,0,9.84h0a7,7,0,0,1-9.85,0h0a7,7,0,0,1,0-9.86h0a7,7,0,0,1,4.93-2Zm1.81,5.17a2.56,2.56,0,0,1-3.62,3.62h0a2.59,2.59,0,0,1-.75-1.81,2.55,2.55,0,0,1,.75-1.81h0a2.59,2.59,0,0,1,1.81-.74,2.55,2.55,0,0,1,1.8.75Z"/><path class="cls-2" d="M74.21,11.77c.25,0,.51.06.76.1a6.24,6.24,0,0,1,.75.16l1.6-2,4.45,2.81L80.7,15.12a8.38,8.38,0,0,1,.52.66c.16.23.31.46.45.7l2.5-.27,1.16,5.12L83,22.19c0,.28-.06.56-.11.83s-.11.56-.18.83l1.94,1.6-2.8,4.45-2.3-1.12-.62.47a6.29,6.29,0,0,1-.64.41l.28,2.53-5.13,1.16L72.54,31c-.26,0-.52-.06-.78-.1s-.52-.1-.77-.16l-1.61,2L64.94,29.9,66,27.59a8.27,8.27,0,0,1-.51-.66c-.16-.22-.31-.46-.45-.7l-2.48.25-1.16-5.13,2.36-.82a7.64,7.64,0,0,1,.1-.82c0-.26.11-.53.18-.8l-2-1.63,2.81-4.45L67.21,14c.2-.17.41-.32.63-.48a7.39,7.39,0,0,1,.66-.42l-.25-2.54,5.13-1.15.83,2.4Zm-.83,4.82a4.77,4.77,0,1,0,4.76,4.77A4.77,4.77,0,0,0,73.38,16.59Z"/><path class="cls-1" d="M73.38,25.78A4.42,4.42,0,1,0,69,21.36,4.43,4.43,0,0,0,73.38,25.78Z"/><rect class="cls-3" x="55.27" y="5.46" width="14.2" height="31.57"/><path class="cls-4" d="M39.79.28H61.37a6.28,6.28,0,0,1,6.26,6.26V36.1a6.28,6.28,0,0,1-6.26,6.26H39.79a6.27,6.27,0,0,1-6.26-6.26V6.54A6.27,6.27,0,0,1,39.79.28ZM61.37,4.15H39.79a2.39,2.39,0,0,0-2.4,2.39V36.1a2.41,2.41,0,0,0,2.4,2.4H61.37a2.42,2.42,0,0,0,2.4-2.4V6.54a2.41,2.41,0,0,0-2.4-2.39Z"/><rect class="cls-5" x="44.45" y="9.57" width="16.45" height="2.15"/><rect class="cls-6" x="44.45" y="14.09" width="16.45" height="2.15"/><rect class="cls-6" x="44.45" y="18.6" width="16.45" height="2.15"/><rect class="cls-5" x="44.45" y="23.12" width="16.45" height="2.15"/><rect class="cls-6" x="44.45" y="27.63" width="16.45" height="2.15"/><rect class="cls-5" x="44.45" y="32.15" width="16.45" height="2.15"/><rect class="cls-5" x="40.21" y="9.57" width="2.2" height="2.15"/><rect class="cls-6" x="40.21" y="14.09" width="2.2" height="2.15"/><rect class="cls-6" x="40.21" y="18.6" width="2.2" height="2.15"/><rect class="cls-5" x="40.21" y="23.12" width="2.2" height="2.15"/><rect class="cls-6" x="40.21" y="27.63" width="2.2" height="2.15"/><rect class="cls-5" x="40.21" y="32.15" width="2.2" height="2.15"/><path class="cls-2" d="M21.31,22.58h0c-2.95,3.33-10.17,3.33-13.13,0h0C3.67,23-.69,32.11.09,36.2H29.33C30.1,32.11,25.75,23,21.31,22.58Z"/><path class="cls-2" d="M14.69,23.61a8.27,8.27,0,1,0-8.27-8.27A8.28,8.28,0,0,0,14.69,23.61Z"/><polygon class="cls-1" points="11.34 24.56 12.54 27.66 16.48 27.77 17.68 24.68 11.34 24.56"/><polygon class="cls-1" points="12.75 29.06 16.37 29.08 18.23 36.2 10.7 36.2 12.75 29.06"/><path class="cls-1" d="M157.94,31.13V30.9l-17.33,0h0c-1.21,0-2,0-2.79,0-5.93.12-10.43.21-13.34-4.77a9.05,9.05,0,0,1-.34-8.67,10.27,10.27,0,0,1,4-4.35,8.34,8.34,0,0,1,2.1-.89,9.82,9.82,0,0,1,4.62-.11h0a9.2,9.2,0,0,1,4.09,2.05,8.51,8.51,0,0,1,2.36,3.17,10.23,10.23,0,0,1,.73,3.1h.41a10.16,10.16,0,0,0-2.74-5.84,9.56,9.56,0,0,0-6.55-3,8.74,8.74,0,0,0-1,0,9.29,9.29,0,0,0-7.2,4A10.57,10.57,0,0,0,123,22.28a9.08,9.08,0,0,0,3.88,7c2.64,1.86,4.73,1.86,8.49,1.86h.47l22.08-.05Zm2.67-1.55,0,4.2-24.72.06h-.47c-4.3,0-6.7,0-10-2.34a11.69,11.69,0,0,1-5-9.07,13.17,13.17,0,0,1,2.38-8.36A11.91,11.91,0,0,1,132,8.94c.42,0,.84,0,1.26,0a12.17,12.17,0,0,1,8.37,3.81,12.79,12.79,0,0,1,3.51,8c0,.37,0,.74,0,1.12l-.06,1.3L139.49,23l0-1.28a9.17,9.17,0,0,0-.6-3.4,5.89,5.89,0,0,0-1.67-2.21,6.51,6.51,0,0,0-2.9-1.45h0a7.21,7.21,0,0,0-3.38.09,5.66,5.66,0,0,0-1.42.6,7.54,7.54,0,0,0-2.94,3.22,6.45,6.45,0,0,0-.48,4.47,6.68,6.68,0,0,0,.71,1.7c2.13,3.63,6,3.55,11,3.45,1,0,2.1,0,2.84,0h0l20,.05Z"/><path class="cls-7" d="M159.26,32.45l0-2.88-18.67,0c-6.89,0-12.05.93-15-4.08-3-5.2.75-10.85,4.93-11.95a8.18,8.18,0,0,1,7.5,1.65c1.84,1.62,2.63,3.36,2.72,6.58l3,0a11.19,11.19,0,0,0-11.75-11.5c-10.36.6-14.12,14.37-5.93,20.14,3.1,2.18,5.4,2.1,9.73,2.1Z"/><path class="cls-1" d="M157.94,26.39v-.21l-22.32,0h-1c-1.87,0-3.56.09-5.07-1.16a4.48,4.48,0,0,1-1.64-3.53,5.14,5.14,0,0,1,.59-2.34,5,5,0,0,1,1.67-1.83,4.79,4.79,0,0,1,4.08-.47,4.27,4.27,0,0,1,2.45,1.82,5.22,5.22,0,0,1,.68,1.73h.25a5.13,5.13,0,0,0-2-3.14,5.09,5.09,0,0,0-2.62-1,5.2,5.2,0,0,0-2.31.41,4.9,4.9,0,0,0-1.61,1.1,5.15,5.15,0,0,0-1.32,2.54,5.08,5.08,0,0,0,.3,2.92,5.64,5.64,0,0,0,1.25,1.8c1.44,1.39,2.71,1.39,5.32,1.38l23.3-.05Zm2.65-1.53V29l-26,.06c-3.34,0-5,0-7.17-2.13a8,8,0,0,1-1.85-2.68,7.58,7.58,0,0,1-.46-4.46,7.68,7.68,0,0,1,2-3.88,7.5,7.5,0,0,1,2.48-1.7,7.6,7.6,0,0,1,7.52.85,7.91,7.91,0,0,1,2.62,3.29,7.52,7.52,0,0,1,.59,3.41l-.08,1.25H135l-.06-1.25a3.62,3.62,0,0,0-.43-1.71,1.69,1.69,0,0,0-1-.7,2.23,2.23,0,0,0-1.88.17,2.2,2.2,0,0,0-.74.83,2.33,2.33,0,0,0-.29,1.11,1.85,1.85,0,0,0,.67,1.47c.75.62,2,.59,3.32.56l1,0,25,0Z"/><path class="cls-7" d="M159.26,27.71V24.86l-23.65,0c-2,0-3.83.28-5.2-.85a3.49,3.49,0,0,1,3.48-5.87c1.52.47,2.25,1.69,2.35,3.61h2.82A6.37,6.37,0,1,0,128.39,26c1.83,1.78,3.29,1.77,6.28,1.76Z"/><path class="cls-1" d="M112.72,11.86l4.14,0L117,31.53h.3v-20h-4.55v.32Zm1.5,2.67-4.18,0,0-5.61h9.86V34.19h-5.6Z"/><polygon class="cls-7" points="111.38 13.18 115.54 13.2 115.65 32.85 118.6 32.86 118.6 10.21 111.39 10.21 111.38 13.18"/><path class="cls-1" d="M109.68,16.54l3,0,0,15H113l0-15.3-3.26,0v.33ZM110,19.2l-3,0V13.54l8.57,0,0,20.6H110Z"/><polygon class="cls-7" points="108.35 17.85 111.32 17.89 111.35 32.86 114.29 32.85 114.27 14.9 108.35 14.88 108.35 17.85"/><path class="cls-8" d="M143.42,23.71a10.93,10.93,0,0,1-1.68,4A10.85,10.85,0,0,1,123,26.26l3.12-1.49a7.4,7.4,0,0,0,12.77,1A7.47,7.47,0,0,0,140,23.32l-1.59-.17,3.84-3.75,2.7,4.47Z"/><path class="cls-1" d="M144.68,25.56c-.1.29-.21.59-.33.87a12.6,12.6,0,0,1-6.14,6.45h0a12.53,12.53,0,0,1-9.59.53A12.54,12.54,0,0,1,121.45,27l-.73-1.53,6.18-3,.74,1.53A5.69,5.69,0,0,0,129,25.81a5.93,5.93,0,0,0,1.91,1.12,5.73,5.73,0,0,0,2.21.32,5.91,5.91,0,0,0,2.15-.56h0a5.64,5.64,0,0,0,2.23-1.92l-2.87-.32,8-7.77,5.28,8.16h-3l-.17.72Zm-3.47-.45a8.57,8.57,0,0,0,.54-1.74l.22-1.06v0l-.36,1.44a8.77,8.77,0,0,1-1.31,2.95,9.37,9.37,0,0,1-3.57,3.08h0a9.12,9.12,0,0,1-3.44.88,8.93,8.93,0,0,1-3.52-.5,9.22,9.22,0,0,1-3.06-1.8A9,9,0,0,1,125.45,27l0,0a8.37,8.37,0,0,0,1.26,1.39,9,9,0,0,0,3.08,1.82,9.24,9.24,0,0,0,3.55.5,9,9,0,0,0,3.45-.89h0a9,9,0,0,0,3.61-3.09A8.65,8.65,0,0,0,141.21,25.11Z"/><path class="cls-8" d="M122.05,19.56a10.88,10.88,0,0,1,1.8-4.67,10.85,10.85,0,0,1,18.75,1.42l-3.12,1.49a7.4,7.4,0,0,0-12.77-1,7.54,7.54,0,0,0-1.21,3.1l1.62.17-3.84,3.76-2.69-4.47Z"/><path class="cls-1" d="M120.7,17.7c.11-.4.24-.8.39-1.19a12.9,12.9,0,0,1,1.35-2.58,12.74,12.74,0,0,1,4.93-4.24h0a12.51,12.51,0,0,1,4.74-1.22,12.29,12.29,0,0,1,4.85.69,12.57,12.57,0,0,1,7.17,6.41l.73,1.53-6.18,3L138,18.54a5.69,5.69,0,0,0-1.33-1.78,5.59,5.59,0,0,0-1.91-1.12,5.76,5.76,0,0,0-2.22-.32,5.69,5.69,0,0,0-4.37,2.48,6.58,6.58,0,0,0-.4.67l3.17.35-8,7.77-4.33-8.51,2.1-.38Zm3.56,0a9.34,9.34,0,0,0-.52,2.05L123.57,21l0,.07.21-1.42a9.14,9.14,0,0,1,.53-2h0a9,9,0,0,1,1-1.82,9.51,9.51,0,0,1,1.59-1.77,9.16,9.16,0,0,1,2-1.3,9.07,9.07,0,0,1,7-.39,9.42,9.42,0,0,1,3.06,1.81,9,9,0,0,1,1.25,1.37l.05,0a8.86,8.86,0,0,0-1.26-1.4,9.2,9.2,0,0,0-6.63-2.31,9,9,0,0,0-3.45.89h0a9.4,9.4,0,0,0-2,1.31,9.3,9.3,0,0,0-1.59,1.78A9.4,9.4,0,0,0,124.26,17.73Z"/><path class="cls-8" d="M132.88,16.33a5,5,0,1,1-3.5,1.45,4.94,4.94,0,0,1,3.5-1.45Zm3,1.94a4.26,4.26,0,0,0-6,0,4.26,4.26,0,1,0,6,0Z"/><path class="cls-1" d="M132.88,14.62a6.77,6.77,0,0,1,2.54.51,6.65,6.65,0,0,1,2.16,1.44A6.68,6.68,0,0,1,139,23.83a6.8,6.8,0,0,1-3.62,3.61,6.7,6.7,0,0,1-5.08,0A6.68,6.68,0,0,1,128.18,26a6.47,6.47,0,0,1-1.45-2.16,6.66,6.66,0,0,1,1.44-7.25h0a6.74,6.74,0,0,1,4.71-2Zm1.82,4.86a2.59,2.59,0,0,0-.83-.56,2.64,2.64,0,0,0-1-.19,2.55,2.55,0,0,0-1,.19,2.63,2.63,0,0,0-.84.56,2.57,2.57,0,0,0-.55.82,2.65,2.65,0,0,0,0,2,2.57,2.57,0,0,0,.55.82,2.63,2.63,0,0,0,.84.56,2.55,2.55,0,0,0,1,.19,2.64,2.64,0,0,0,1-.19,2.59,2.59,0,0,0,.83-.56,2.69,2.69,0,0,0,.55-.82,2.65,2.65,0,0,0,0-2A2.57,2.57,0,0,0,134.7,19.48Z"/><path class="cls-8" d="M134.25,18.47v3.06h1.37l-2.74,3-2.73-3h1.36V18.47Z"/><polygon class="cls-1" points="135.96 18.47 135.96 19.82 139.42 19.82 132.88 27.13 126.34 19.82 129.81 19.82 129.81 16.77 135.96 16.77 135.96 18.47"/><path class="cls-7" d="M143.42,23.71a10.93,10.93,0,0,1-1.68,4,10.9,10.9,0,0,1-12.56,4.13c-5.46-1.92-7.66-6.88-7.13-12.25a10.88,10.88,0,0,1,1.8-4.67,10.85,10.85,0,0,1,18.75,1.42l-3.12,1.49a7.4,7.4,0,0,0-12.77-1,7.54,7.54,0,0,0-1.21,3.1c-.51,3.72,1.13,7.3,4.82,8.6A7.38,7.38,0,0,0,140,23.32l-1.59-.17,3.84-3.75,2.7,4.47Z"/><path class="cls-7" d="M95.67,22.08h4.86V19.9l4.86,4.35-4.86,4.35V26.43H95.67V22.08Z"/><path class="cls-7" d="M99.09,16.21H94.23V14l-4.86,4.35,4.86,4.35V20.56h4.86V16.21Z"/></g></g></svg>