<svg xmlns="http://www.w3.org/2000/svg" viewBox="0 0 137.91 46.92"><defs><style>.cls-1,.cls-3{fill:#fff;}.cls-1,.cls-2,.cls-4,.cls-6{fill-rule:evenodd;}.cls-2,.cls-7{fill:#b1b2b3;}.cls-4,.cls-5{fill:#e20023;}.cls-4{stroke:#fff;stroke-width:0.57px;}.cls-4,.cls-6{stroke-miterlimit:22.93;}.cls-6{fill:none;stroke:#e20023;stroke-width:4.25px;}</style></defs><title>Ресурс 6</title><g id="Слой_2" data-name="Слой 2"><g id="Слой_1-2" data-name="Слой 1"><path class="cls-1" d="M80.81,16.21l-.23,0-1.07-.1L79,14.65l-1,.23.15,1.51-.92.55-.39.24h0l-.18.13-.18.14-.82.69-1.39-.67-.55.86,1.19,1L74.6,20.6a17,17,0,0,0-.2,1.78l-1.4.49.22,1,1.48-.14.54.92.26.41.15.18.15.2.69.81-.65,1.39.87.55,1-1.2c.59.15,1.12.3,1.71.4l1.29.11.53,1.43,1-.22L82,27.19l.94-.55.37-.24h0l.18-.13.19-.15.82-.68,1.36.66.55-.86-1.18-1L85.6,23a17.2,17.2,0,0,0,.19-1.79l1.42-.51-.22-1-1.49.16L85,18.93l-.26-.4-.15-.2-.16-.19-.69-.82L84.33,16l-.86-.54-1,1.19-1.25-.32-.45-.07Zm.9-4,1-1.26L88.6,14.7l-.72,1.54,1.71-.19,1.53,6.79-1.64.59,1.34,1.11-3.71,5.87-1.45-.7.18,1.59-6.78,1.53-.56-1.55L77.44,32.6l-5.87-3.71.74-1.59-1.7.17-1.53-6.78,1.59-.55-1.32-1.09,3.71-5.88,1.51.73-.16-1.63,6.78-1.53.52,1.51ZM80.1,16.5a5.27,5.27,0,0,1,3.74,1.55h0a5.26,5.26,0,0,1,0,7.46h0a5.28,5.28,0,0,1-7.46,0h0a5.29,5.29,0,0,1,0-7.48h0A5.26,5.26,0,0,1,80.1,16.5Zm1.37,3.91a1.94,1.94,0,0,1,0,2.75,2,2,0,0,1-2.74,0h0a2,2,0,0,1,0-2.74h0a1.94,1.94,0,0,1,2.74,0Z"/><path class="cls-2" d="M80.74,14.52l.57.07a5.78,5.78,0,0,1,.57.12l1.21-1.51,3.37,2.12-.81,1.74a6.25,6.25,0,0,1,.4.5c.12.17.23.35.34.53l1.9-.21.88,3.89-1.8.65c0,.21,0,.42-.08.63a6.21,6.21,0,0,1-.14.62l1.48,1.22L86.5,28.26l-1.74-.85c-.15.13-.31.24-.47.36a5,5,0,0,1-.49.31L84,30l-3.88.88-.66-1.82a5.6,5.6,0,0,1-.59-.07l-.59-.13-1.22,1.53L73.7,28.26l.83-1.75a6.12,6.12,0,0,1-.39-.5c-.12-.17-.23-.35-.34-.53l-1.88.19L71,21.78l1.78-.62c0-.21.05-.42.08-.62s.09-.41.14-.61l-1.5-1.24,2.13-3.36,1.76.85a7,7,0,0,1,1-.68l-.18-1.93,3.88-.87.64,1.82Zm-.64,3.66a3.61,3.61,0,1,0,3.61,3.61A3.61,3.61,0,0,0,80.1,18.18Z"/><path class="cls-1" d="M80.1,25.14a3.35,3.35,0,1,0-3.35-3.35A3.36,3.36,0,0,0,80.1,25.14Z"/><rect class="cls-3" x="66.37" y="9.73" width="10.77" height="23.93"/><path class="cls-4" d="M57.61,7.79H71a4.76,4.76,0,0,1,4.75,4.75V32A4.75,4.75,0,0,1,71,36.71H57.61A4.75,4.75,0,0,1,52.87,32V12.54a4.76,4.76,0,0,1,4.74-4.75ZM71,10.72H57.61a1.83,1.83,0,0,0-1.28.54,1.8,1.8,0,0,0-.53,1.28V32a1.8,1.8,0,0,0,.53,1.28,1.83,1.83,0,0,0,1.28.54H71a1.83,1.83,0,0,0,1.29-.54A1.8,1.8,0,0,0,72.82,32V12.54a1.8,1.8,0,0,0-.53-1.28A1.83,1.83,0,0,0,71,10.72Z"/><rect class="cls-5" x="58.17" y="12.85" width="12.47" height="1.63"/><rect class="cls-5" x="58.17" y="16.27" width="12.47" height="1.63"/><rect class="cls-5" x="58.17" y="19.7" width="12.47" height="1.63"/><rect class="cls-5" x="58.17" y="23.12" width="12.47" height="1.63"/><rect class="cls-5" x="58.17" y="26.54" width="12.47" height="1.63"/><rect class="cls-5" x="58.17" y="29.97" width="12.47" height="1.63"/><path class="cls-2" d="M22.27,32.68h0c-3.08,3.48-10.64,3.48-13.72,0h0c-4.63.4-9.19,10-8.38,14.24H30.64C31.46,42.64,26.9,33.08,22.27,32.68Z"/><path class="cls-2" d="M15.35,33.75a8.64,8.64,0,1,0-8.64-8.64A8.66,8.66,0,0,0,15.35,33.75Z"/><polygon class="cls-1" points="11.85 34.75 13.1 37.99 17.22 38.1 18.47 34.88 11.85 34.75"/><polygon class="cls-1" points="13.32 39.45 17.11 39.47 19.05 46.91 11.18 46.91 13.32 39.45"/><path class="cls-6" d="M72.8,2.52C57.75.31,44.2,7.7,42.54,19a16.62,16.62,0,0,0,1.63,9.81l-7.76,12,16.88-2.21a34.41,34.41,0,0,0,13.49,4.91C81.83,45.74,95.38,38.35,97,27S87.85,4.73,72.8,2.52Z"/><path class="cls-2" d="M129.56,32.89h0c-3,3.42-10.47,3.42-13.51,0H116c-4.56.4-9,9.81-8.25,14h30.11C138.62,42.7,134.13,33.29,129.56,32.89Z"/><circle class="cls-7" cx="122.74" cy="25.43" r="8.51" transform="translate(90.56 146.58) rotate(-86.83)"/></g></g></svg>