<svg xmlns="http://www.w3.org/2000/svg" viewBox="0 0 317.37 43"><defs><style>.cls-1,.cls-5{fill:#b1b2b3;}.cls-1,.cls-2,.cls-4{fill-rule:evenodd;}.cls-2{fill:#fff;}.cls-3{fill:#ececed;}.cls-4,.cls-6{fill:#e20023;}.cls-6{font-size:10.63px;font-family:ArialMT, Arial;}</style></defs><title>Ресурс 7</title><g id="Слой_2" data-name="Слой 2"><g id="Слой_1-2" data-name="Слой 1"><path class="cls-1" d="M19.34,30.64h0c-2.68,3-9.24,3-11.92,0h0C3.33,31-.62,39.29.08,43H26.62C27.32,39.29,23.37,31,19.34,30.64Z"/><path class="cls-1" d="M13.33,31.57a7.51,7.51,0,1,0-7.5-7.51A7.53,7.53,0,0,0,13.33,31.57Z"/><polygon class="cls-2" points="10.29 32.44 11.38 35.25 14.96 35.35 16.05 32.55 10.29 32.44"/><polygon class="cls-2" points="11.57 36.52 14.86 36.54 16.55 43 9.71 43 11.57 36.52"/><path class="cls-1" d="M83.28,30.64h0c-2.68,3-9.23,3-11.91,0h0c-4,.35-8,8.65-7.27,12.36H90.55C91.26,39.29,87.3,31,83.28,30.64Z"/><path class="cls-1" d="M77.26,31.57a7.51,7.51,0,1,0-7.5-7.51A7.52,7.52,0,0,0,77.26,31.57Z"/><polygon class="cls-2" points="74.22 32.44 75.32 35.25 78.89 35.35 79.98 32.55 74.22 32.44"/><polygon class="cls-2" points="75.51 36.52 78.79 36.54 80.48 43 73.65 43 75.51 36.52"/><path class="cls-1" d="M197,30.62h0c-2.64,3-9.1,3-11.74,0h0c-4,.34-7.86,8.52-7.16,12.18h26.15C204.85,39.14,201,31,197,30.62Z"/><path class="cls-1" d="M191.06,31.53a7.4,7.4,0,1,0-7.39-7.39A7.41,7.41,0,0,0,191.06,31.53Z"/><path class="cls-1" d="M131.76,30.64h0c-2.68,3-9.24,3-11.92,0h0c-4,.35-8,8.65-7.28,12.36H139C139.74,39.29,135.78,31,131.76,30.64Z"/><path class="cls-1" d="M125.74,31.57a7.51,7.51,0,1,0-7.5-7.51A7.52,7.52,0,0,0,125.74,31.57Z"/><polygon class="cls-2" points="122.7 32.44 123.79 35.25 127.37 35.35 128.46 32.55 122.7 32.44"/><polygon class="cls-2" points="123.98 36.52 127.27 36.54 128.96 43 122.13 43 123.98 36.52"/><rect class="cls-3" x="99.24" y="8.58" width="4.57" height="34.43"/><rect class="cls-3" x="213.72" y="8.58" width="4.57" height="34.43"/><path class="cls-1" d="M246.08,30.64h0c-2.67,3-9.23,3-11.91,0h0c-4,.35-8,8.65-7.27,12.36h26.53C254.06,39.29,250.1,31,246.08,30.64Z"/><path class="cls-1" d="M240.07,31.57a7.51,7.51,0,1,0-7.51-7.51A7.52,7.52,0,0,0,240.07,31.57Z"/><polygon class="cls-2" points="237.03 32.44 238.12 35.25 241.69 35.35 242.78 32.55 237.03 32.44"/><polygon class="cls-2" points="238.31 36.52 241.59 36.54 243.29 43 236.45 43 238.31 36.52"/><path class="cls-1" d="M310,30.64h0c-2.68,3-9.24,3-11.92,0h0c-4,.35-8,8.65-7.28,12.36h26.54C318,39.29,314,31,310,30.64Z"/><path class="cls-1" d="M304,31.57a7.51,7.51,0,1,0-7.5-7.51A7.52,7.52,0,0,0,304,31.57Z"/><polygon class="cls-2" points="300.96 32.44 302.05 35.25 305.62 35.35 306.72 32.55 300.96 32.44"/><polygon class="cls-2" points="302.24 36.52 305.53 36.54 307.22 43 300.38 43 302.24 36.52"/><path class="cls-4" d="M35.89,2.28a10.3,10.3,0,0,0-6.15,1.9,5.38,5.38,0,0,0-2.38,4.24,4.4,4.4,0,0,0,.22,1.36,4.77,4.77,0,0,0,.65,1.32l.36.52-1.33,2.92L31,13.47l.38.16a10.31,10.31,0,0,0,2.14.69,11.58,11.58,0,0,0,2.33.23,10.33,10.33,0,0,0,6.16-1.9,5.39,5.39,0,0,0,2.37-4.23,5.4,5.4,0,0,0-2.37-4.24,10.33,10.33,0,0,0-6.16-1.9Zm-7.52.08A12.57,12.57,0,0,1,35.89,0a12.57,12.57,0,0,1,7.52,2.36A7.63,7.63,0,0,1,46.7,8.42a7.63,7.63,0,0,1-3.29,6.05,12.57,12.57,0,0,1-7.52,2.36,14.27,14.27,0,0,1-2.79-.28,14,14,0,0,1-2.22-.67l-7.73,2.19L26,11.82a7.36,7.36,0,0,1-.59-1.35,6.77,6.77,0,0,1-.33-2.05A7.63,7.63,0,0,1,28.37,2.36Z"/><path class="cls-4" d="M51.08,15.8a12.35,12.35,0,0,1,7.35,2.31A7.47,7.47,0,0,1,61.65,24a6.57,6.57,0,0,1-.32,2,6.93,6.93,0,0,1-.57,1.31l2.8,6.14L56,31.36A13.35,13.35,0,0,1,53.8,32a13.57,13.57,0,0,1-2.72.28A12.36,12.36,0,0,1,43.72,30,7.48,7.48,0,0,1,40.5,24a7.47,7.47,0,0,1,3.22-5.93,12.36,12.36,0,0,1,7.36-2.31Zm6,4.13a10.64,10.64,0,0,0-12,0A5.24,5.24,0,0,0,42.78,24a5.24,5.24,0,0,0,2.3,4.12,10.05,10.05,0,0,0,6,1.85,11.06,11.06,0,0,0,2.27-.23,10.32,10.32,0,0,0,2.08-.66l.38-.17,3.64,1-1.28-2.8.36-.53a5,5,0,0,0,.64-1.28,4.46,4.46,0,0,0,.2-1.33A5.24,5.24,0,0,0,57.07,19.93Z"/><path class="cls-4" d="M147.89,2.28a10.3,10.3,0,0,0-6.15,1.9,5.38,5.38,0,0,0-2.38,4.24,4.72,4.72,0,0,0,.21,1.36,5.1,5.1,0,0,0,.66,1.32l.36.52-1.33,2.92L143,13.47l.38.16a10.31,10.31,0,0,0,2.14.69,11.58,11.58,0,0,0,2.33.23,10.27,10.27,0,0,0,6.15-1.9,5.38,5.38,0,0,0,2.38-4.23A5.38,5.38,0,0,0,154,4.18a10.27,10.27,0,0,0-6.15-1.9Zm-7.52.08a13.16,13.16,0,0,1,15,0,7.63,7.63,0,0,1,3.29,6.06,7.63,7.63,0,0,1-3.29,6.05,12.57,12.57,0,0,1-7.52,2.36,14.27,14.27,0,0,1-2.79-.28,14,14,0,0,1-2.22-.67l-7.73,2.19L138,11.82a7.36,7.36,0,0,1-.59-1.35,6.77,6.77,0,0,1-.33-2.05A7.63,7.63,0,0,1,140.37,2.36Z"/><path class="cls-4" d="M163.07,15.8a12.36,12.36,0,0,1,7.36,2.31A7.47,7.47,0,0,1,173.65,24a6.57,6.57,0,0,1-.32,2,6.93,6.93,0,0,1-.57,1.31l2.8,6.14L168,31.36a13.23,13.23,0,0,1-2.16.65,13.59,13.59,0,0,1-2.73.28A12.35,12.35,0,0,1,155.72,30,7.48,7.48,0,0,1,152.5,24a7.47,7.47,0,0,1,3.22-5.93,12.35,12.35,0,0,1,7.35-2.31Zm6,4.13a10.64,10.64,0,0,0-12,0,5.24,5.24,0,0,0-2.3,4.11,5.24,5.24,0,0,0,2.3,4.12,10,10,0,0,0,6,1.85,11.08,11.08,0,0,0,2.28-.23,10.53,10.53,0,0,0,2.08-.66l.38-.17,3.64,1-1.28-2.8.36-.53a5.29,5.29,0,0,0,.64-1.28,4.46,4.46,0,0,0,.2-1.33A5.24,5.24,0,0,0,169.07,19.93Z"/><path class="cls-4" d="M262.76,2.28a10.3,10.3,0,0,0-6.15,1.9,5.38,5.38,0,0,0-2.38,4.24,4.4,4.4,0,0,0,.22,1.36,4.77,4.77,0,0,0,.65,1.32l.36.52-1.33,2.92,3.78-1.07.38.16a10.31,10.31,0,0,0,2.14.69,11.58,11.58,0,0,0,2.33.23,10.27,10.27,0,0,0,6.15-1.9,5.38,5.38,0,0,0,2.38-4.23,5.38,5.38,0,0,0-2.38-4.24,10.27,10.27,0,0,0-6.15-1.9Zm-7.52.08a13.16,13.16,0,0,1,15,0,7.63,7.63,0,0,1,3.29,6.06,7.63,7.63,0,0,1-3.29,6.05,12.57,12.57,0,0,1-7.52,2.36,14.27,14.27,0,0,1-2.79-.28,14,14,0,0,1-2.22-.67L250,18.07l2.85-6.25a7.36,7.36,0,0,1-.59-1.35A6.77,6.77,0,0,1,252,8.42,7.63,7.63,0,0,1,255.24,2.36Z"/><path class="cls-4" d="M277.94,15.8a12.36,12.36,0,0,1,7.36,2.31A7.47,7.47,0,0,1,288.52,24a6.57,6.57,0,0,1-.32,2,6.93,6.93,0,0,1-.57,1.31l2.8,6.14-7.59-2.15a13.35,13.35,0,0,1-2.17.65,13.59,13.59,0,0,1-2.73.28A12.35,12.35,0,0,1,270.59,30,7.48,7.48,0,0,1,267.37,24a7.47,7.47,0,0,1,3.22-5.93,12.35,12.35,0,0,1,7.35-2.31Zm6,4.13a10.64,10.64,0,0,0-12,0,5.24,5.24,0,0,0-2.3,4.11,5.24,5.24,0,0,0,2.3,4.12,10,10,0,0,0,6,1.85,11.08,11.08,0,0,0,2.28-.23,10.32,10.32,0,0,0,2.08-.66l.38-.17,3.64,1L285,27.18l.36-.53a5.29,5.29,0,0,0,.64-1.28,4.46,4.46,0,0,0,.2-1.33A5.24,5.24,0,0,0,283.94,19.93Z"/><path class="cls-2" d="M36,5.86h-.1l-.52,0-.24-.69-.48.11.07.73-.44.26-.19.12h0L34,6.4,34,6.46l-.4.34-.67-.33-.26.42.57.47L33,8a8.36,8.36,0,0,0-.09.86l-.68.24.11.48.71-.07.26.44.13.2.07.09.07.09.34.39-.32.67.42.26.46-.57c.29.07.54.14.83.19l.62,0,.25.69.48-.1-.08-.73.45-.26.18-.12h0l.09-.07.08-.07.4-.32.66.31.26-.41-.57-.47.17-.61a8.08,8.08,0,0,0,.09-.86L39.12,8,39,7.55l-.72.07L38,7.17A2.14,2.14,0,0,0,37.9,7l-.07-.1-.07-.09-.34-.39.31-.66-.42-.27-.46.58-.6-.15-.22,0ZM36.47,4l.49-.6,2.83,1.78-.35.75.82-.09L41,9.05l-.79.29.65.53L39.07,12.7l-.7-.34.09.77-3.27.74-.27-.75-.51.63L31.59,12l.35-.77-.82.08L30.39,8l.76-.27-.64-.52L32.3,4.4l.73.35L33,4l3.27-.73.25.72ZM35.69,6a2.53,2.53,0,0,1,1.8.75h0a2.52,2.52,0,0,1,0,3.59h0a2.55,2.55,0,0,1-3.59,0h0a2.56,2.56,0,0,1,0-3.6h0A2.52,2.52,0,0,1,35.69,6Zm.66,1.89a.91.91,0,0,1,.28.66.93.93,0,0,1-.28.66.9.9,0,0,1-.66.27A.92.92,0,0,1,35,9.21h0a1,1,0,0,1-.27-.66A1,1,0,0,1,35,7.89h0a1,1,0,0,1,.66-.27.93.93,0,0,1,.66.28Z"/><path class="cls-1" d="M36,5.05l.28,0,.27.06.58-.73,1.63,1-.39.84.19.24a2.26,2.26,0,0,1,.16.26l.91-.1.43,1.87-.87.31a1.54,1.54,0,0,1,0,.3,2.27,2.27,0,0,1-.06.3l.71.59-1,1.62-.83-.4-.23.17-.24.15.11.92-1.87.42-.32-.87-.29,0L34.82,12l-.58.74-1.63-1,.4-.84-.19-.24c-.06-.08-.11-.17-.16-.25l-.91.08-.42-1.87.86-.3a2.54,2.54,0,0,1,0-.29l.06-.3-.72-.59,1-1.62.84.41.23-.18.24-.15-.09-.93,1.87-.42.31.88Zm-.31,1.76a1.74,1.74,0,1,0,1.74,1.74A1.74,1.74,0,0,0,35.69,6.81Z"/><path class="cls-2" d="M35.69,10.16a1.62,1.62,0,1,0-1.61-1.61A1.62,1.62,0,0,0,35.69,10.16Z"/><path class="cls-2" d="M51.5,21.27h-.11l-.52-.05-.24-.69-.48.11.07.73-.44.26-.18.12h0l-.09.07-.09.07-.39.33-.67-.33-.27.42.58.47-.17.61c0,.3-.06.56-.09.86l-.67.24.1.48.72-.07.25.44.13.2.07.09.07.09.34.39-.32.67.42.27.47-.58c.28.07.53.14.82.19l.62.05.25.69.48-.1-.08-.73.45-.26.18-.12h0l.09-.07.09-.06.4-.33.65.32.26-.42-.56-.47.16-.61a8.08,8.08,0,0,0,.1-.86l.68-.25L54.47,23l-.71.08-.27-.46a2.14,2.14,0,0,0-.13-.19l-.07-.09-.07-.1-.34-.39.31-.66-.41-.27-.47.58-.6-.15-.21,0Zm.43-1.91.49-.6,2.83,1.78-.35.75.82-.09.74,3.26-.79.29.65.53-1.79,2.83-.7-.34.09.77-3.27.74-.27-.75-.5.63-2.83-1.78.35-.77-.81.08-.74-3.26.77-.27L46,22.64l1.78-2.83.73.35-.07-.79,3.26-.73.25.72Zm-.77,2.05a2.55,2.55,0,0,1,1.8.75h0a2.55,2.55,0,0,1,0,3.59h0a2.55,2.55,0,0,1-3.59,0h0a2.54,2.54,0,0,1,0-3.6h0a2.55,2.55,0,0,1,1.8-.75Zm.66,1.89a.94.94,0,0,1,0,1.32.92.92,0,0,1-.66.27.9.9,0,0,1-.66-.27h0a.92.92,0,0,1,0-1.32h0a.9.9,0,0,1,.66-.27.94.94,0,0,1,.66.27Z"/><path class="cls-1" d="M51.46,20.46l.28,0,.27.06.59-.73,1.62,1-.39.83.19.24a2.26,2.26,0,0,1,.16.26l.92-.1L55.52,24l-.86.31c0,.1,0,.21,0,.31s0,.2-.07.3l.71.58-1,1.62-.84-.4-.23.17-.23.15.1.92-1.87.43-.32-.88-.28,0-.28-.05-.59.73-1.62-1,.39-.84c-.06-.08-.13-.16-.18-.24l-.17-.25-.9.09L46.79,24l.86-.29c0-.1,0-.2,0-.3s0-.2.07-.3L47,22.47l1-1.62.85.41.22-.18.24-.15L49.28,20l1.88-.42.3.88Zm-.3,1.76A1.74,1.74,0,1,0,52.9,24,1.74,1.74,0,0,0,51.16,22.22Z"/><path class="cls-2" d="M51.16,25.57a1.62,1.62,0,0,0,0-3.23,1.62,1.62,0,1,0,0,3.23Z"/><rect class="cls-5" x="142.28" y="6.04" width="10.8" height="1.84"/><rect class="cls-5" x="144.47" y="9.02" width="6.76" height="1.67"/><rect class="cls-5" x="157.56" y="21.93" width="10.8" height="1.84"/><rect class="cls-5" x="159.75" y="24.92" width="6.06" height="1.67"/><text class="cls-6" transform="translate(258.75 13.05) scale(1.37 1)">$</text><text class="cls-6" transform="translate(274.12 28.51) scale(1.37 1)">$</text></g></g></svg>