<svg xmlns="http://www.w3.org/2000/svg" viewBox="0 0 151.91 43.3"><defs><style>.cls-1{fill:#fff;}.cls-1,.cls-2,.cls-3{fill-rule:evenodd;}.cls-2{fill:#b1b2b3;}.cls-3{fill:#e20023;}.cls-4{fill:#ececed;}</style></defs><title>Ресурс 4</title><g id="Слой_2" data-name="Слой 2"><g id="Слой_1-2" data-name="Слой 1"><path class="cls-1" d="M35.43,5.66h-.11l-.57-.05-.26-.75L34,5l.08.8L33.56,6l-.2.13h0l-.1.07-.09.07-.43.37L32,6.33l-.28.45.62.52L32.17,8c-.06.32-.08.61-.11.94l-.73.25.12.53.77-.08.29.48.13.22.08.1.08.1.36.43-.34.73.46.29.5-.64c.32.08.59.16.91.21l.67.06.28.76.52-.12-.09-.79.49-.29.2-.13h0l.1-.07.09-.07.44-.36.71.34.29-.45-.62-.51L38,9.24a7.46,7.46,0,0,0,.1-1L38.8,8l-.12-.52-.78.09-.29-.49a1.64,1.64,0,0,0-.14-.22l-.07-.1-.09-.1L37,6.25l.33-.72-.45-.29-.5.63-.66-.17-.24,0Zm.48-2.08.53-.66,3.09,2-.38.81.9-.1.8,3.57L40,9.46l.71.58-2,3.09L38,12.76l.09.84-3.57.8-.29-.81-.56.69-3.08-1.95L31,11.5l-.9.08L29.27,8l.83-.29-.69-.57,1.95-3.09.79.38-.08-.86,3.56-.8.28.79Zm-.85,2.24a2.78,2.78,0,0,1,2,.81h0a2.79,2.79,0,0,1,0,3.93h0a2.75,2.75,0,0,1-3.92,0h0a2.76,2.76,0,0,1,0-3.93h0a2.78,2.78,0,0,1,2-.81Zm.72,2.05a1,1,0,0,1-1.44,1.45h0A1,1,0,0,1,34,8.6a1,1,0,0,1,.3-.72h0a1,1,0,0,1,.72-.29,1,1,0,0,1,.72.3Z"/><path class="cls-2" d="M35.4,4.77l.3,0,.3.07.64-.8L38.41,5.2,38,6.11l.21.26.18.28,1-.11.46,2-.95.35a1.86,1.86,0,0,1,0,.33c0,.11,0,.22-.07.33l.77.64L38.43,12l-.92-.45-.25.19-.25.17.11,1-2,.47-.35-1-.31,0-.31-.06-.64.8L31.7,12l.43-.92c-.07-.09-.14-.17-.2-.26a2.2,2.2,0,0,1-.18-.28l-1,.09-.46-2,.94-.32c0-.11,0-.22,0-.33s0-.21.07-.32L30.56,7,31.68,5.2l.93.45.24-.19.27-.17-.1-1,2-.46.34.95ZM35.06,6.7A1.9,1.9,0,1,0,37,8.6,1.9,1.9,0,0,0,35.06,6.7Z"/><path class="cls-1" d="M35.06,10.36A1.77,1.77,0,1,0,33.3,8.6,1.76,1.76,0,0,0,35.06,10.36Z"/><path class="cls-2" d="M21.2,29.75h0c-2.94,3.31-10.12,3.31-13.06,0h0c-4.41.39-8.74,9.48-8,13.55H29.17C29.94,39.23,25.61,30.13,21.2,29.75Z"/><path class="cls-2" d="M14.61,30.77a8.23,8.23,0,1,0-8.23-8.22A8.23,8.23,0,0,0,14.61,30.77Z"/><polygon class="cls-1" points="11.28 31.72 12.47 34.81 16.39 34.91 17.59 31.84 11.28 31.72"/><polygon class="cls-1" points="12.68 36.19 16.28 36.22 18.14 43.3 10.65 43.3 12.68 36.19"/><path class="cls-2" d="M82.79,29.75h0c-2.94,3.31-10.12,3.31-13.06,0h0c-4.41.39-8.74,9.48-8,13.55H90.76C91.53,39.23,87.2,30.13,82.79,29.75Z"/><path class="cls-2" d="M76.2,30.77A8.23,8.23,0,1,0,68,22.55,8.23,8.23,0,0,0,76.2,30.77Z"/><polygon class="cls-1" points="72.87 31.72 74.06 34.81 77.98 34.91 79.17 31.84 72.87 31.72"/><polygon class="cls-1" points="74.27 36.19 77.87 36.22 79.73 43.3 72.24 43.3 74.27 36.19"/><path class="cls-3" d="M35.37,2.32a10.38,10.38,0,0,0-6.25,1.93,5.47,5.47,0,0,0-2.41,4.3,4.54,4.54,0,0,0,.21,1.39,5.42,5.42,0,0,0,.67,1.34l.36.53-1.35,3,3.85-1.09.38.18a10.58,10.58,0,0,0,2.17.69,12,12,0,0,0,2.37.24,10.5,10.5,0,0,0,6.26-1.93A5.5,5.5,0,0,0,44,8.55a5.47,5.47,0,0,0-2.41-4.3,10.43,10.43,0,0,0-6.26-1.93Zm-7.64.08A12.8,12.8,0,0,1,35.37,0,12.78,12.78,0,0,1,43,2.4a7.74,7.74,0,0,1,3.34,6.15A7.72,7.72,0,0,1,43,14.7a12.72,12.72,0,0,1-7.64,2.4,13.86,13.86,0,0,1-2.83-.29,12.61,12.61,0,0,1-2.26-.68l-7.85,2.23L25.32,12a8,8,0,0,1-.6-1.37,7,7,0,0,1-.33-2.09A7.76,7.76,0,0,1,27.73,2.4Z"/><path class="cls-3" d="M50.8,16.06a12.53,12.53,0,0,1,7.48,2.35,7.58,7.58,0,0,1,3.27,6,6.87,6.87,0,0,1-.32,2.06,7.49,7.49,0,0,1-.59,1.33l2.85,6.23-7.72-2.19a12.79,12.79,0,0,1-2.2.67,14,14,0,0,1-2.77.28,12.5,12.5,0,0,1-7.47-2.35,7.57,7.57,0,0,1-3.28-6,7.56,7.56,0,0,1,3.28-6,12.5,12.5,0,0,1,7.47-2.35Zm6.09,4.19a10.85,10.85,0,0,0-12.18,0,5.34,5.34,0,0,0-2.34,4.18,5.31,5.31,0,0,0,2.34,4.18,10.14,10.14,0,0,0,6.09,1.88,11.38,11.38,0,0,0,2.31-.23,10.29,10.29,0,0,0,2.12-.67l.38-.17,3.7,1L58,27.62l.37-.54a5.27,5.27,0,0,0,.65-1.3,4.59,4.59,0,0,0,.2-1.35A5.31,5.31,0,0,0,56.89,20.25Z"/><path class="cls-1" d="M51,21.21h-.12l-.56-.05L50,20.4l-.52.12.08.79-.49.29-.2.13h0l-.1.07-.09.07-.43.37-.73-.36-.29.46.63.51-.18.67c-.06.32-.07.61-.1.94l-.74.26.12.52.78-.08.28.49.14.21.07.1.08.1.37.43-.34.73.45.29.51-.63c.31.08.59.16.9.21l.68.06.27.75.52-.12L51.6,27l.5-.29.19-.12h0l.1-.07.09-.07.44-.36.72.35.28-.46-.62-.5.18-.67c.06-.33.08-.6.11-.94l.74-.27-.11-.52-.79.08-.29-.49c0-.07-.09-.14-.13-.22l-.08-.1-.08-.1-.37-.43.34-.72-.46-.29-.5.63-.66-.16L51,21.21Zm.47-2.08.53-.66,3.09,2-.38.81.9-.1.81,3.57-.86.31.7.58-1.95,3.09-.76-.37.09.84L50.05,30l-.3-.82-.55.69-3.09-1.95.39-.83-.89.09-.81-3.57.84-.29-.7-.57,2-3.09.8.38-.09-.86,3.57-.8.27.79Zm-.84,2.24a2.78,2.78,0,0,1,2,.81h0a2.75,2.75,0,0,1,0,3.92h0a2.76,2.76,0,0,1-3.93,0h0a2.76,2.76,0,0,1-.81-2,2.8,2.8,0,0,1,.81-2h0a2.77,2.77,0,0,1,2-.82Zm.72,2.06a1,1,0,0,1,0,1.44,1,1,0,0,1-.72.3,1,1,0,0,1-.72-.3h0a1,1,0,0,1-.3-.72,1,1,0,0,1,.3-.72h0a1,1,0,0,1,.72-.3,1,1,0,0,1,.72.3Z"/><path class="cls-2" d="M50.93,20.33l.3,0a1.59,1.59,0,0,1,.3.06l.64-.8,1.77,1.12-.43.91a2.47,2.47,0,0,1,.21.27l.18.28,1-.12.46,2.05-.94.34c0,.11,0,.22-.05.33s0,.22-.07.33l.78.64L54,27.55,53,27.11l-.24.18-.26.17.11,1-2,.46-.35-1a1.65,1.65,0,0,1-.31,0l-.31-.06-.64.8-1.77-1.12.43-.92a2.56,2.56,0,0,1-.2-.26l-.18-.28-1,.1-.46-2.05.94-.32c0-.11,0-.22,0-.33s0-.21.07-.32l-.78-.65,1.11-1.77.93.45.25-.19.26-.17-.1-1,2.05-.46.33,1Zm-.33,1.92a1.9,1.9,0,1,0,1.89,1.9A1.9,1.9,0,0,0,50.6,22.25Z"/><path class="cls-1" d="M50.6,25.91a1.76,1.76,0,1,0-1.77-1.76A1.76,1.76,0,0,0,50.6,25.91Z"/><rect class="cls-4" x="103.89" y="3.25" width="5.31" height="40.05"/><path class="cls-2" d="M143.85,29.75h0c-2.94,3.31-10.12,3.31-13.06,0h0c-4.41.39-8.74,9.48-8,13.55h29.08C152.59,39.23,148.26,30.13,143.85,29.75Z"/><path class="cls-2" d="M137.26,30.77A8.23,8.23,0,1,0,129,22.55,8.23,8.23,0,0,0,137.26,30.77Z"/></g></g></svg>